<?xml version="1.0" standalone="no"?>
<!DOCTYPE svg PUBLIC "-//W3C//DTD SVG 20010904//EN"
 "http://www.w3.org/TR/2001/REC-SVG-20010904/DTD/svg10.dtd">
<svg version="1.0" xmlns="http://www.w3.org/2000/svg"
 width="1600.000000pt" height="1600.000000pt" viewBox="0 0 1600.000000 1600.000000"
 preserveAspectRatio="xMidYMid meet">
<metadata>
Created by potrace 1.14, written by Peter Selinger 2001-2017
</metadata>
<g transform="translate(0.000000,1600.000000) scale(0.100000,-0.100000)"
fill="#000000" stroke="none">
<path d="M2798 15324 c-21 -13 -49 -41 -62 -62 l-25 -37 0 -7238 c-1 -6755 0
-7241 16 -7274 14 -31 63 -90 63 -77 0 2 11 -3 24 -11 14 -9 38 -17 55 -17 17
-1 28 -4 26 -9 -6 -9 15 -6 33 5 7 4 19 3 27 -4 10 -8 15 -8 21 1 5 8 11 4 21
-12 12 -21 13 -22 8 -3 -5 18 -1 22 20 22 14 0 25 -6 25 -12 0 -7 3 -7 8 -1 8
11 84 17 77 6 -2 -4 2 -8 10 -8 8 0 12 4 9 9 -3 4 5 6 18 4 13 -2 22 -9 20
-16 -1 -6 2 -9 8 -5 6 3 8 11 4 16 -11 19 21 3 34 -16 13 -20 13 -20 7 1 -5
18 -1 21 40 21 46 1 46 1 28 -21 -16 -18 -15 -18 8 2 20 18 28 20 32 10 4 -10
6 -10 6 0 1 6 6 12 12 12 5 0 8 -4 5 -8 -3 -5 1 -9 9 -9 8 0 12 4 9 9 -3 4 5
6 18 4 13 -2 22 -9 20 -16 -1 -6 2 -9 8 -5 6 3 8 11 4 16 -11 19 21 3 34 -16
13 -20 13 -20 7 1 -5 18 -1 22 20 22 14 0 25 -6 25 -12 0 -7 3 -7 8 -1 8 11
84 17 77 6 -2 -4 2 -8 10 -8 8 0 12 4 9 9 -3 4 5 6 18 4 13 -2 22 -9 20 -16
-1 -6 2 -9 8 -5 6 3 8 11 4 16 -11 19 21 3 34 -16 13 -20 13 -20 7 1 -5 18 -1
21 40 21 46 1 46 1 28 -21 -16 -18 -15 -18 8 2 20 18 28 20 32 10 4 -10 6 -10
6 0 1 6 6 12 12 12 5 0 8 -4 5 -8 -3 -5 1 -9 9 -9 8 0 12 4 9 9 -3 4 5 6 18 4
13 -2 22 -9 20 -16 -1 -6 2 -9 8 -5 6 3 8 11 4 16 -11 19 21 3 34 -16 13 -20
13 -20 7 1 -5 18 -1 22 20 22 14 0 25 -6 25 -12 0 -7 3 -7 8 -1 8 11 84 17 77
6 -2 -4 2 -8 10 -8 8 0 12 4 9 9 -3 4 5 6 18 4 13 -2 22 -9 20 -16 -1 -6 2 -9
8 -5 6 3 8 11 4 16 -11 19 21 3 34 -16 13 -20 13 -20 7 1 -5 18 -1 21 40 21
46 1 46 1 28 -21 -16 -18 -15 -18 8 2 20 18 28 20 32 10 4 -10 6 -10 6 0 1 6
6 12 12 12 5 0 8 -4 5 -8 -3 -5 1 -9 9 -9 8 0 12 4 9 9 -3 4 5 6 18 4 13 -2
22 -9 20 -16 -1 -6 2 -9 8 -5 6 3 8 11 4 16 -11 19 21 3 34 -16 13 -20 13 -20
7 1 -5 18 -1 22 20 22 14 0 25 -6 25 -12 0 -7 3 -7 8 -1 8 11 84 17 77 6 -2
-4 2 -8 10 -8 8 0 12 4 9 9 -3 4 5 6 18 4 13 -2 22 -9 20 -16 -1 -6 2 -9 8 -5
6 3 8 11 4 16 -11 19 21 3 34 -16 13 -20 13 -20 7 1 -5 18 -1 21 40 21 46 1
46 1 28 -21 -16 -18 -15 -18 8 2 20 18 28 20 32 10 4 -10 6 -10 6 0 1 6 6 12
12 12 5 0 8 -4 5 -8 -3 -5 1 -9 9 -9 8 0 12 4 9 9 -3 4 5 6 18 4 13 -2 22 -9
20 -16 -1 -6 2 -9 8 -5 6 3 8 11 4 16 -11 19 21 3 34 -16 13 -20 13 -20 7 1
-5 18 -1 22 20 22 14 0 25 -6 25 -12 0 -7 3 -7 8 -1 8 11 84 17 77 6 -2 -4 2
-8 10 -8 8 0 12 3 10 7 -2 4 11 7 30 7 19 0 32 -4 29 -9 -3 -4 0 -8 5 -8 6 0
11 4 11 10 0 5 10 8 23 6 12 -2 21 -9 19 -16 -1 -6 2 -9 8 -5 6 3 8 11 4 16
-11 19 21 3 34 -16 13 -20 13 -20 7 1 -5 18 -1 22 20 22 14 0 25 -6 25 -12 0
-7 3 -7 8 -1 8 11 84 17 77 6 -2 -4 2 -8 10 -8 8 0 12 4 9 9 -3 4 5 6 18 4 13
-2 22 -9 20 -16 -1 -6 2 -9 8 -5 6 3 8 11 4 16 -11 19 21 3 34 -16 13 -20 13
-20 7 1 -5 18 -1 21 40 21 46 1 46 1 28 -21 -16 -18 -15 -18 8 2 20 18 28 20
32 10 4 -10 6 -10 6 0 1 6 6 12 12 12 5 0 8 -4 5 -8 -3 -5 1 -9 9 -9 8 0 12 4
9 9 -3 4 5 6 18 4 13 -2 22 -9 20 -16 -1 -6 2 -9 8 -5 6 3 8 11 4 16 -11 19
21 3 34 -16 13 -20 13 -20 7 1 -5 18 -1 22 20 22 14 0 25 -6 25 -12 0 -7 3 -7
8 -1 8 11 84 17 77 6 -2 -4 2 -8 10 -8 8 0 12 4 9 9 -3 4 5 6 18 4 13 -2 22
-9 20 -16 -1 -6 2 -9 8 -5 6 3 8 11 4 16 -11 19 21 3 34 -16 13 -20 13 -20 7
1 -5 18 -1 21 40 21 46 1 46 1 28 -21 -16 -18 -15 -18 8 2 20 18 28 20 32 10
4 -10 6 -10 6 0 1 6 6 12 12 12 5 0 8 -4 5 -8 -3 -5 1 -9 9 -9 8 0 12 4 9 9
-3 4 5 6 18 4 13 -2 22 -9 20 -16 -1 -6 2 -9 8 -5 6 3 8 11 4 16 -11 19 21 3
34 -16 13 -20 13 -20 7 1 -5 18 -1 22 20 22 14 0 25 -6 25 -12 0 -7 3 -7 8 -1
8 11 84 17 77 6 -2 -4 2 -8 10 -8 8 0 12 4 9 9 -3 4 5 6 18 4 13 -2 22 -9 20
-16 -1 -6 2 -9 8 -5 6 3 8 11 4 16 -11 19 21 3 34 -16 13 -20 13 -20 7 1 -5
18 -1 21 40 21 46 1 46 1 28 -21 -16 -18 -15 -18 8 2 20 18 28 20 32 10 4 -10
6 -10 6 0 1 6 6 12 12 12 5 0 8 -4 5 -8 -3 -5 1 -9 9 -9 8 0 12 4 9 9 -3 4 5
6 18 4 13 -2 22 -9 20 -16 -1 -6 2 -9 8 -5 6 3 8 11 4 16 -11 19 21 3 34 -16
13 -20 13 -20 7 1 -5 18 -1 22 20 22 14 0 25 -6 25 -12 0 -7 3 -7 8 -1 8 11
84 17 77 6 -2 -4 2 -8 10 -8 8 0 12 4 9 9 -3 4 5 6 18 4 13 -2 22 -9 20 -16
-1 -6 2 -9 8 -5 6 3 8 11 4 16 -11 19 21 3 34 -16 13 -20 13 -20 7 1 -5 18 -1
21 40 21 46 1 46 1 28 -21 -16 -18 -15 -18 8 2 20 18 28 20 32 10 4 -10 6 -10
6 0 1 6 6 12 12 12 5 0 8 -4 5 -8 -3 -5 1 -9 9 -9 8 0 12 4 9 9 -3 4 5 6 18 4
13 -2 22 -9 20 -16 -1 -6 2 -9 8 -5 6 3 8 11 4 16 -11 19 21 3 34 -16 13 -20
13 -20 7 1 -5 18 -1 22 20 22 14 0 25 -6 25 -12 0 -7 3 -7 8 -1 8 11 84 17 77
6 -2 -4 2 -8 10 -8 8 0 12 4 9 9 -3 4 5 6 18 4 13 -2 22 -9 20 -16 -1 -6 2 -9
8 -5 6 3 8 11 4 16 -11 19 21 3 34 -16 13 -20 13 -20 7 1 -5 18 -1 21 40 21
46 1 46 1 28 -21 -16 -18 -15 -18 8 2 20 18 28 20 32 10 4 -10 6 -10 6 0 1 6
6 12 12 12 5 0 8 -4 5 -8 -3 -5 1 -9 9 -9 8 0 12 4 9 9 -3 4 5 6 18 4 13 -2
22 -9 20 -16 -1 -6 2 -9 8 -5 6 3 8 11 4 16 -11 19 21 3 34 -16 13 -20 13 -20
7 1 -5 18 -1 22 20 22 14 0 25 -6 25 -12 0 -7 3 -7 8 -1 8 11 84 17 77 6 -2
-4 2 -8 10 -8 8 0 12 4 9 9 -3 4 5 6 18 4 13 -2 22 -9 20 -16 -1 -6 2 -9 8 -5
6 3 8 11 4 16 -11 19 21 3 34 -16 13 -20 13 -20 7 1 -5 18 -1 21 40 21 46 1
46 1 28 -21 -16 -18 -15 -18 8 2 20 18 28 20 32 10 4 -10 6 -10 6 0 1 6 6 12
12 12 5 0 8 -4 5 -8 -3 -5 1 -9 9 -9 8 0 12 4 9 9 -3 4 5 6 18 4 13 -2 22 -9
20 -16 -1 -6 2 -9 8 -5 6 3 8 11 4 16 -11 19 21 3 34 -16 13 -20 13 -20 7 1
-5 18 -1 22 20 22 14 0 25 -6 25 -12 0 -7 3 -7 8 -1 8 11 84 17 77 6 -2 -4 2
-8 10 -8 8 0 12 4 9 9 -3 4 5 6 18 4 13 -2 22 -9 20 -16 -1 -6 2 -9 8 -5 6 3
8 11 4 16 -11 19 21 3 34 -16 13 -20 13 -20 7 1 -5 18 -1 21 40 21 46 1 46 1
28 -21 -16 -18 -15 -18 8 2 20 18 28 20 32 10 4 -10 6 -10 6 0 1 6 6 12 12 12
5 0 8 -4 5 -8 -3 -5 1 -9 9 -9 8 0 12 4 9 9 -3 4 5 6 18 4 13 -2 22 -9 20 -16
-1 -6 2 -9 8 -5 6 3 8 11 4 16 -11 19 21 3 34 -16 13 -20 13 -20 7 1 -5 18 -1
22 20 22 14 0 25 -6 25 -12 0 -7 3 -7 8 -1 8 11 84 17 77 6 -2 -4 2 -8 10 -8
8 0 12 4 9 9 -3 4 5 6 18 4 13 -2 22 -9 20 -16 -1 -6 2 -9 8 -5 6 3 8 11 4 16
-11 19 21 3 34 -16 13 -20 13 -20 7 1 -5 18 -1 21 40 21 46 1 46 1 28 -21 -16
-18 -15 -18 8 2 20 18 28 20 32 10 4 -10 6 -10 6 0 1 6 6 12 12 12 5 0 8 -4 5
-8 -3 -5 1 -9 9 -9 8 0 12 4 9 9 -3 4 5 6 18 4 13 -2 22 -9 20 -16 -1 -6 2 -9
8 -5 6 3 8 11 4 16 -11 19 21 3 34 -16 13 -20 13 -20 7 1 -5 18 -1 22 20 22
14 0 25 -6 25 -12 0 -7 3 -7 8 -1 8 11 84 17 77 6 -2 -4 2 -8 10 -8 8 0 12 4
9 9 -3 4 5 6 18 4 13 -2 22 -9 20 -16 -1 -6 2 -9 8 -5 6 3 8 11 4 16 -11 19
21 3 34 -16 13 -20 13 -20 7 1 -5 18 -1 21 40 21 46 1 46 1 28 -21 -16 -18
-15 -18 8 2 20 18 28 20 32 10 4 -10 6 -10 6 0 1 6 6 12 12 12 5 0 8 -4 5 -8
-3 -5 1 -9 9 -9 8 0 12 4 9 9 -3 4 5 6 18 4 13 -2 22 -9 20 -16 -1 -6 2 -9 8
-5 6 3 8 11 4 16 -11 19 21 3 34 -16 13 -20 13 -20 7 1 -5 18 -1 22 20 22 14
0 25 -6 25 -12 0 -7 3 -7 8 -1 8 11 84 17 77 6 -2 -4 2 -8 10 -8 8 0 12 4 9 9
-3 4 5 6 18 4 13 -2 22 -9 20 -16 -1 -6 2 -9 8 -5 6 3 8 11 4 16 -11 19 21 3
34 -16 13 -20 13 -20 7 1 -5 18 -1 21 40 21 46 1 46 1 28 -21 -16 -18 -15 -18
8 2 20 18 28 20 32 10 4 -10 6 -10 6 0 1 6 6 12 12 12 5 0 8 -4 5 -8 -3 -5 1
-9 9 -9 8 0 12 4 9 9 -3 4 5 6 18 4 13 -2 22 -9 20 -16 -1 -6 2 -9 8 -5 6 3 8
11 4 16 -11 19 21 3 34 -16 13 -20 13 -20 7 1 -5 18 -1 22 20 22 14 0 25 -6
25 -12 0 -7 3 -7 8 -1 8 11 84 17 77 6 -2 -4 2 -8 10 -8 8 0 12 3 10 7 -2 4
11 7 30 7 19 0 32 -4 29 -9 -3 -4 0 -8 5 -8 6 0 11 4 11 10 0 5 10 8 23 6 12
-2 21 -9 19 -16 -1 -6 2 -9 8 -5 6 3 8 11 4 16 -11 19 21 3 34 -16 13 -20 13
-20 7 1 -5 18 -1 22 20 22 14 0 25 -6 25 -12 0 -7 3 -7 8 -1 8 11 84 17 77 6
-2 -4 2 -8 10 -8 8 0 12 4 9 9 -3 4 5 6 18 4 13 -2 22 -9 20 -16 -1 -6 2 -9 8
-5 6 3 8 11 4 16 -11 19 21 3 34 -16 13 -20 13 -20 7 1 -5 18 -1 21 40 21 46
1 46 1 28 -21 -16 -18 -15 -18 8 2 20 18 28 20 32 10 4 -10 6 -10 6 0 1 6 6
12 12 12 5 0 8 -4 5 -8 -3 -5 1 -9 9 -9 8 0 12 4 9 9 -3 4 5 6 18 4 13 -2 22
-9 20 -16 -1 -6 2 -9 8 -5 6 3 8 11 4 16 -11 19 21 3 34 -16 13 -20 13 -20 7
1 -5 18 -1 22 20 22 14 0 25 -6 25 -12 0 -7 3 -7 8 -1 8 11 84 17 77 6 -2 -4
2 -8 10 -8 8 0 12 4 9 9 -3 4 5 6 18 4 13 -2 22 -9 20 -16 -1 -6 2 -9 8 -5 6
3 8 11 4 16 -11 19 21 3 34 -16 13 -20 13 -20 7 1 -5 18 -1 21 40 21 46 1 46
1 28 -21 -16 -18 -15 -18 8 2 20 18 28 20 32 10 4 -10 6 -10 6 0 1 6 6 12 12
12 5 0 8 -4 5 -8 -3 -5 1 -9 9 -9 8 0 12 4 9 9 -3 4 5 6 18 4 13 -2 22 -9 20
-16 -1 -6 2 -9 8 -5 6 3 8 11 4 16 -11 19 21 3 34 -16 13 -20 13 -20 7 1 -5
18 -1 22 20 22 14 0 25 -6 25 -12 0 -7 3 -7 8 -1 8 11 84 17 77 6 -2 -4 2 -8
10 -8 8 0 12 4 9 9 -3 4 5 6 18 4 13 -2 22 -9 20 -16 -1 -6 2 -9 8 -5 6 3 8
11 4 16 -11 19 21 3 34 -16 13 -20 13 -20 7 1 -5 18 -1 21 40 21 46 1 46 1 28
-21 -16 -18 -15 -18 8 2 20 18 28 20 32 10 4 -10 6 -10 6 0 1 6 6 12 12 12 5
0 8 -4 5 -8 -3 -5 1 -9 9 -9 8 0 12 4 9 9 -3 4 5 6 18 4 13 -2 22 -9 20 -16
-1 -6 2 -9 8 -5 6 3 8 11 4 16 -11 19 21 3 34 -16 13 -20 13 -20 7 1 -5 18 -1
22 20 22 14 0 25 -6 25 -12 0 -7 3 -7 8 -1 8 11 84 17 77 6 -2 -4 2 -8 10 -8
8 0 12 4 9 9 -3 4 5 6 18 4 13 -2 22 -9 20 -16 -1 -6 2 -9 8 -5 6 3 8 11 4 16
-11 19 21 3 34 -16 13 -20 13 -20 7 1 -5 18 -1 21 40 21 46 1 46 1 28 -21 -16
-18 -15 -18 8 2 20 18 28 20 32 10 4 -10 6 -10 6 0 1 6 6 12 12 12 5 0 8 -4 5
-8 -3 -5 1 -9 9 -9 8 0 12 4 9 9 -3 4 5 6 18 4 13 -2 22 -9 20 -16 -1 -6 2 -9
8 -5 6 3 8 11 4 16 -11 19 21 3 34 -16 13 -20 13 -20 7 1 -5 18 -1 22 20 22
14 0 25 -6 25 -12 0 -7 3 -7 8 -1 8 11 84 17 77 6 -2 -4 2 -8 10 -8 8 0 12 4
9 9 -3 4 5 6 18 4 13 -2 22 -9 20 -16 -1 -6 2 -9 8 -5 6 3 8 11 4 16 -11 19
21 3 34 -16 13 -20 13 -20 7 1 -5 18 -1 21 40 21 46 1 46 1 28 -21 -16 -18
-15 -18 8 2 20 18 28 20 32 10 4 -10 6 -10 6 0 1 6 6 12 12 12 5 0 8 -4 5 -8
-3 -5 1 -9 9 -9 8 0 12 4 9 9 -3 4 5 6 18 4 13 -2 22 -9 20 -16 -1 -6 2 -9 8
-5 6 3 8 11 4 16 -11 19 21 3 34 -16 13 -20 13 -20 7 1 -5 18 -1 22 20 22 14
0 25 -6 25 -12 0 -7 3 -7 8 -1 8 11 84 17 77 6 -2 -4 2 -8 10 -8 8 0 12 4 9 9
-3 4 5 6 18 4 13 -2 22 -9 20 -16 -1 -6 2 -9 8 -5 6 3 8 11 4 16 -11 19 21 3
34 -16 13 -20 13 -20 7 1 -5 18 -1 21 40 21 46 1 46 1 28 -21 -14 -17 -12 -16
10 3 19 17 27 20 27 10 0 -12 2 -12 9 0 7 11 9 11 14 0 4 -10 6 -10 6 -1 1 6
9 12 19 12 26 0 94 35 86 43 -7 7 9 11 36 8 13 -2 13 -1 0 9 -13 9 -10 14 15
36 20 17 24 22 10 17 -17 -6 -18 -4 -8 8 9 11 12 124 13 444 0 301 4 432 12
442 9 11 7 12 -8 7 -18 -7 -18 -6 1 16 11 13 14 20 8 16 -10 -6 -13 18 -14
106 -1 62 0 118 1 123 1 6 1 52 1 103 -1 60 2 99 10 108 10 12 8 13 -7 8 -18
-7 -18 -6 1 16 11 13 14 20 8 16 -10 -6 -13 18 -14 106 -1 62 -1 117 0 121 1
5 1 411 1 904 0 661 3 899 11 910 10 11 8 12 -7 7 -18 -7 -18 -6 1 16 11 13
14 20 8 16 -10 -6 -13 18 -14 106 -1 62 0 118 1 123 1 6 1 52 1 103 -1 60 2
99 10 108 10 12 8 13 -7 8 -18 -7 -18 -6 1 16 11 13 14 20 8 16 -10 -6 -13 18
-14 106 -1 62 -1 117 0 121 1 5 1 268 1 584 0 422 3 579 11 590 10 11 8 12 -7
7 -18 -7 -18 -6 1 16 11 13 14 20 8 16 -10 -6 -13 18 -14 106 -1 62 0 118 1
123 1 6 1 52 1 103 -1 60 2 99 10 108 10 12 8 13 -7 8 -18 -7 -18 -6 1 16 11
13 14 20 8 16 -10 -6 -13 18 -14 106 -1 62 -1 117 0 121 1 5 1 268 1 584 0
422 3 579 11 590 10 11 8 12 -7 7 -18 -7 -18 -6 1 16 11 13 14 20 8 16 -10 -6
-13 18 -14 106 -1 62 0 118 1 123 1 6 1 52 1 103 -1 60 2 99 10 108 10 12 8
13 -7 8 -18 -7 -18 -6 1 16 11 13 14 20 8 16 -10 -6 -13 18 -14 106 -1 62 -1
117 0 121 1 5 1 268 1 584 0 422 3 579 11 590 10 11 8 12 -7 7 -18 -7 -18 -6
1 16 11 13 14 20 8 16 -10 -6 -13 18 -14 106 -1 62 0 118 1 123 1 6 1 52 1
103 -1 60 2 99 10 108 10 12 8 13 -7 8 -18 -7 -18 -6 1 16 11 13 14 20 8 16
-10 -6 -13 18 -14 106 -1 62 -1 117 0 122 1 5 2 124 1 264 0 181 3 258 11 268
10 12 8 13 -7 8 -18 -7 -18 -6 1 16 11 13 14 20 8 16 -10 -6 -13 18 -14 106
-1 62 0 118 1 123 1 6 1 52 1 103 -1 60 2 99 10 108 10 12 8 13 -7 8 -18 -7
-18 -6 1 16 11 13 14 20 8 16 -10 -6 -13 18 -14 106 -1 62 -1 117 0 121 1 5 1
268 1 584 0 422 3 579 11 590 10 11 8 12 -7 7 -18 -7 -18 -6 1 16 11 13 14 20
8 16 -10 -6 -13 18 -14 106 -1 62 0 118 1 123 1 6 1 52 1 103 -1 60 2 99 10
108 10 12 8 13 -7 8 -18 -7 -18 -6 1 16 11 13 14 20 8 16 -10 -6 -13 18 -14
106 -1 62 -1 117 0 121 1 5 1 268 1 584 0 422 3 579 11 590 10 11 8 12 -7 7
-18 -7 -18 -6 1 16 11 13 14 20 8 16 -10 -5 -13 7 -14 48 -2 62 -1 61 -13 96
-10 28 -57 75 -97 96 -24 12 -728 14 -5196 13 l-5168 0 -37 -25z"/>
<path d="M3095 580 c-3 -5 -1 -10 4 -10 6 0 11 5 11 10 0 6 -2 10 -4 10 -3 0
-8 -4 -11 -10z"/>
<path d="M3575 580 c-3 -5 -1 -10 4 -10 6 0 11 5 11 10 0 6 -2 10 -4 10 -3 0
-8 -4 -11 -10z"/>
<path d="M4055 580 c-3 -5 -1 -10 4 -10 6 0 11 5 11 10 0 6 -2 10 -4 10 -3 0
-8 -4 -11 -10z"/>
<path d="M4535 580 c-3 -5 -1 -10 4 -10 6 0 11 5 11 10 0 6 -2 10 -4 10 -3 0
-8 -4 -11 -10z"/>
<path d="M5015 580 c-3 -5 -1 -10 4 -10 6 0 11 5 11 10 0 6 -2 10 -4 10 -3 0
-8 -4 -11 -10z"/>
<path d="M5335 580 c-3 -5 -1 -10 4 -10 6 0 11 5 11 10 0 6 -2 10 -4 10 -3 0
-8 -4 -11 -10z"/>
<path d="M5815 580 c-3 -5 -1 -10 4 -10 6 0 11 5 11 10 0 6 -2 10 -4 10 -3 0
-8 -4 -11 -10z"/>
<path d="M6295 580 c-3 -5 -1 -10 4 -10 6 0 11 5 11 10 0 6 -2 10 -4 10 -3 0
-8 -4 -11 -10z"/>
<path d="M6775 580 c-3 -5 -1 -10 4 -10 6 0 11 5 11 10 0 6 -2 10 -4 10 -3 0
-8 -4 -11 -10z"/>
<path d="M7255 580 c-3 -5 -1 -10 4 -10 6 0 11 5 11 10 0 6 -2 10 -4 10 -3 0
-8 -4 -11 -10z"/>
<path d="M7735 580 c-3 -5 -1 -10 4 -10 6 0 11 5 11 10 0 6 -2 10 -4 10 -3 0
-8 -4 -11 -10z"/>
<path d="M8215 580 c-3 -5 -1 -10 4 -10 6 0 11 5 11 10 0 6 -2 10 -4 10 -3 0
-8 -4 -11 -10z"/>
<path d="M8695 580 c-3 -5 -1 -10 4 -10 6 0 11 5 11 10 0 6 -2 10 -4 10 -3 0
-8 -4 -11 -10z"/>
<path d="M9175 580 c-3 -5 -1 -10 4 -10 6 0 11 5 11 10 0 6 -2 10 -4 10 -3 0
-8 -4 -11 -10z"/>
<path d="M9655 580 c-3 -5 -1 -10 4 -10 6 0 11 5 11 10 0 6 -2 10 -4 10 -3 0
-8 -4 -11 -10z"/>
<path d="M10135 580 c-3 -5 -1 -10 4 -10 6 0 11 5 11 10 0 6 -2 10 -4 10 -3 0
-8 -4 -11 -10z"/>
<path d="M10455 580 c-3 -5 -1 -10 4 -10 6 0 11 5 11 10 0 6 -2 10 -4 10 -3 0
-8 -4 -11 -10z"/>
<path d="M10935 580 c-3 -5 -1 -10 4 -10 6 0 11 5 11 10 0 6 -2 10 -4 10 -3 0
-8 -4 -11 -10z"/>
<path d="M11415 580 c-3 -5 -1 -10 4 -10 6 0 11 5 11 10 0 6 -2 10 -4 10 -3 0
-8 -4 -11 -10z"/>
<path d="M11895 580 c-3 -5 -1 -10 4 -10 6 0 11 5 11 10 0 6 -2 10 -4 10 -3 0
-8 -4 -11 -10z"/>
<path d="M12375 580 c-3 -5 -1 -10 4 -10 6 0 11 5 11 10 0 6 -2 10 -4 10 -3 0
-8 -4 -11 -10z"/>
<path d="M12855 580 c-3 -5 -1 -10 4 -10 6 0 11 5 11 10 0 6 -2 10 -4 10 -3 0
-8 -4 -11 -10z"/>
</g>
</svg>
